<svg width="543" height="706" viewBox="0 0 543 706" fill="none" xmlns="http://www.w3.org/2000/svg">
<g filter="url(#filter0_d_2687_3456)">
<path fill-rule="evenodd" clip-rule="evenodd" d="M45.8903 46.4792C43 52.1518 43 59.5776 43 74.4292V652.527H56.2594C56.2594 645.936 61.6021 640.594 68.1926 640.594C74.7832 640.594 80.1258 645.936 80.1258 652.527H90.7328C90.7328 645.936 96.0755 640.594 102.666 640.594C109.257 640.594 114.599 645.936 114.599 652.527H125.206C125.206 645.936 130.549 640.594 137.139 640.594C143.73 640.594 149.073 645.936 149.073 652.527H159.68C159.68 645.936 165.023 640.594 171.614 640.594C178.204 640.594 183.547 645.936 183.547 652.527H194.154C194.154 645.936 199.496 640.594 206.087 640.594C212.678 640.594 218.02 645.936 218.02 652.527H228.628C228.628 645.936 233.971 640.594 240.561 640.594C247.152 640.594 252.494 645.936 252.494 652.527H263.101C263.101 645.936 268.444 640.594 275.035 640.594C281.625 640.594 286.968 645.936 286.968 652.527H297.575C297.575 645.936 302.917 640.594 309.508 640.594C316.099 640.594 321.441 645.936 321.441 652.527H332.049C332.049 645.936 337.392 640.594 343.982 640.594C350.573 640.594 355.915 645.936 355.915 652.527H366.522C366.522 645.936 371.865 640.594 378.456 640.594C385.046 640.594 390.389 645.936 390.389 652.527H400.997C400.997 645.936 406.339 640.594 412.93 640.594C419.52 640.594 424.863 645.936 424.863 652.527H435.47C435.47 645.936 440.813 640.594 447.403 640.594C453.994 640.594 459.336 645.936 459.336 652.527H469.943C469.943 645.936 475.286 640.594 481.877 640.594C488.467 640.594 493.81 645.936 493.81 652.527H500.44V74.4292C500.44 59.5776 500.44 52.1518 497.549 46.4792C495.007 41.4895 490.95 37.4327 485.96 34.8903C480.288 32 472.862 32 458.01 32H85.4292C70.5776 32 63.1518 32 57.4792 34.8903C52.4895 37.4327 48.4327 41.4895 45.8903 46.4792Z" fill="#34B53A"/>
</g>
<defs>
<filter id="filter0_d_2687_3456" x="0.570808" y="0.178106" width="542.3" height="705.386" filterUnits="userSpaceOnUse" color-interpolation-filters="sRGB">
<feFlood flood-opacity="0" result="BackgroundImageFix"/>
<feColorMatrix in="SourceAlpha" type="matrix" values="0 0 0 0 0 0 0 0 0 0 0 0 0 0 0 0 0 0 127 0" result="hardAlpha"/>
<feOffset dy="10.6073"/>
<feGaussianBlur stdDeviation="21.2146"/>
<feComposite in2="hardAlpha" operator="out"/>
<feColorMatrix type="matrix" values="0 0 0 0 0.886275 0 0 0 0 0.984314 0 0 0 0 0.843137 0 0 0 1 0"/>
<feBlend mode="normal" in2="BackgroundImageFix" result="effect1_dropShadow_2687_3456"/>
<feBlend mode="normal" in="SourceGraphic" in2="effect1_dropShadow_2687_3456" result="shape"/>
</filter>
</defs>
</svg>
