<svg width="458" height="537" viewBox="0 0 458 537" fill="none" xmlns="http://www.w3.org/2000/svg">
<path fill-rule="evenodd" clip-rule="evenodd" d="M2.89032 14.4792C0 20.1518 0 27.5776 0 42.4292V537L13.2594 537C13.2594 531.297 18.6021 526.673 25.1926 526.673C31.7831 526.673 37.1258 531.297 37.1258 537H47.7328C47.7328 531.297 53.0755 526.673 59.666 526.673C66.2565 526.673 71.5992 531.297 71.5992 537H82.2062C82.2062 531.297 87.5489 526.673 94.1394 526.673C100.73 526.673 106.073 531.297 106.073 537H116.68C116.68 531.297 122.023 526.673 128.614 526.673C135.204 526.673 140.547 531.297 140.547 537H151.154C151.154 531.297 156.496 526.673 163.087 526.673C169.678 526.673 175.02 531.297 175.02 537H185.628C185.628 531.297 190.971 526.673 197.561 526.673C204.152 526.673 209.494 531.297 209.494 537H220.101C220.101 531.297 225.444 526.673 232.035 526.673C238.625 526.673 243.968 531.297 243.968 537H254.575C254.575 531.297 259.918 526.673 266.508 526.673C273.099 526.673 278.441 531.297 278.441 537H289.049C289.049 531.297 294.392 526.673 300.982 526.673C307.573 526.673 312.915 531.297 312.915 537H323.522C323.522 531.297 328.865 526.673 335.456 526.673C342.046 526.673 347.389 531.297 347.389 537H357.997C357.997 531.297 363.339 526.673 369.93 526.673C376.52 526.673 381.863 531.297 381.863 537H392.47C392.47 531.297 397.813 526.673 404.403 526.673C410.994 526.673 416.336 531.297 416.336 537H426.943C426.943 531.297 432.286 526.673 438.877 526.673C445.467 526.673 450.81 531.297 450.81 537L457.44 537V42.4292C457.44 27.5776 457.44 20.1518 454.549 14.4792C452.007 9.48948 447.95 5.43271 442.96 2.89032C437.288 0 429.862 0 415.01 0H42.4292C27.5776 0 20.1518 0 14.4792 2.89032C9.48948 5.43271 5.43271 9.48948 2.89032 14.4792Z" fill="#E2FBD7"/>
</svg>
