<svg width="29" height="29" viewBox="0 0 29 29" fill="none" xmlns="http://www.w3.org/2000/svg">
<g clip-path="url(#clip0_1488_4508)">
<path d="M28.7305 14.5C28.7305 6.76801 22.4625 0.5 14.7305 0.5C6.99848 0.5 0.730469 6.76801 0.730469 14.5C0.730469 21.4877 5.85004 27.2796 12.543 28.3299V18.5469H8.98828V14.5H12.543V11.4156C12.543 7.90687 14.6331 5.96875 17.831 5.96875C19.3622 5.96875 20.9648 6.24219 20.9648 6.24219V9.6875H19.1995C17.4605 9.6875 16.918 10.7668 16.918 11.875V14.5H20.8008L20.1801 18.5469H16.918V28.3299C23.6109 27.2796 28.7305 21.4877 28.7305 14.5Z" fill="#1877F2"/>
<path d="M20.1801 18.5469L20.8008 14.5H16.918V11.875C16.918 10.7679 17.4605 9.6875 19.1995 9.6875H20.9648V6.24219C20.9648 6.24219 19.3628 5.96875 17.831 5.96875C14.6331 5.96875 12.543 7.90688 12.543 11.4156V14.5H8.98828V18.5469H12.543V28.3299C13.9925 28.5567 15.4685 28.5567 16.918 28.3299V18.5469H20.1801Z" fill="white"/>
</g>
<defs>
<clipPath id="clip0_1488_4508">
<rect width="28" height="28" fill="white" transform="translate(0.730469 0.5)"/>
</clipPath>
</defs>
</svg>
