<svg width="29" height="29" viewBox="0 0 29 29" fill="none" xmlns="http://www.w3.org/2000/svg">
<g clip-path="url(#clip0_1488_4534)">
<path d="M28.4573 14.8233C28.4573 13.8716 28.3801 12.9148 28.2155 11.9785H15.0103V17.3697H22.5723C22.2585 19.1084 21.2502 20.6465 19.7738 21.6239V25.122H24.2853C26.9346 22.6836 28.4573 19.0827 28.4573 14.8233Z" fill="#4285F4"/>
<path d="M15.0103 28.5009C18.7861 28.5009 21.9704 27.2611 24.2904 25.1211L19.779 21.6231C18.5238 22.477 16.9033 22.9606 15.0154 22.9606C11.363 22.9606 8.26618 20.4965 7.15503 17.1836H2.49951V20.7897C4.87614 25.5172 9.71686 28.5009 15.0103 28.5009Z" fill="#34A853"/>
<path d="M7.14988 17.1832C6.56344 15.4444 6.56344 13.5616 7.14988 11.8229V8.2168H2.49951C0.513837 12.1727 0.513837 16.8334 2.49951 20.7893L7.14988 17.1832Z" fill="#FBBC04"/>
<path d="M15.0103 6.04127C17.0062 6.01041 18.9353 6.76146 20.3808 8.14012L24.3779 4.14305C21.8469 1.76642 18.4877 0.45979 15.0103 0.500943C9.71685 0.500943 4.87614 3.48459 2.49951 8.21728L7.14989 11.8234C8.25589 8.50536 11.3579 6.04127 15.0103 6.04127Z" fill="#EA4335"/>
</g>
<defs>
<clipPath id="clip0_1488_4534">
<rect width="28" height="28" fill="white" transform="translate(0.730469 0.5)"/>
</clipPath>
</defs>
</svg>
