<svg width="39" height="26" viewBox="0 0 39 26" fill="none" xmlns="http://www.w3.org/2000/svg">
<path d="M13 26H16.947L15.7979 24.8509C15.4932 24.5462 15.0799 24.375 14.6489 24.375H13C6.71775 24.375 1.625 19.2822 1.625 13C1.625 6.71775 6.71775 1.62501 13 1.625H26C32.2822 1.625 37.375 6.71775 37.375 13C37.375 19.2822 32.2822 24.375 26 24.375H21.137C20.4905 24.375 19.8705 24.1182 19.4134 23.6611L18.0672 22.3149C17.3053 21.553 16.272 21.125 15.1945 21.125H13C8.51266 21.125 4.875 17.4873 4.875 13C4.875 8.51266 8.51266 4.875 13 4.875H26C30.4873 4.875 34.125 8.51266 34.125 13C34.125 17.4873 30.4873 21.125 26 21.125H22.8775C22.231 21.125 21.611 20.8682 21.1539 20.4111L19.8076 19.0649C19.0458 18.303 18.0125 17.875 16.935 17.875H13C10.3076 17.875 8.125 15.6924 8.125 13C8.125 10.3076 10.3076 8.125 13 8.125H26C28.6924 8.125 30.875 10.3076 30.875 13C30.875 15.6595 28.7453 17.8217 26.0983 17.874L26.0978 17.875H24.9087C24.2622 17.875 23.6423 17.6182 23.1851 17.1611L21.8389 15.8149C21.2138 15.1897 20.4059 14.7894 19.5408 14.6658L19.5 14.625H13C12.1025 14.625 11.375 13.8975 11.375 13C11.375 12.1025 12.1025 11.375 13 11.375H26C26.8975 11.375 27.625 12.1025 27.625 13C27.625 13.8975 26.8975 14.625 26 14.625H22.75L23.8991 15.7741C24.2038 16.0788 24.6171 16.25 25.0481 16.25H26C27.7949 16.25 29.25 14.7949 29.25 13C29.25 11.2051 27.7949 9.75 26 9.75H13C11.2051 9.75 9.75 11.2051 9.75 13C9.75 14.7949 11.2051 16.25 13 16.25H18.9663C19.6128 16.25 20.2327 16.5068 20.6899 16.9639L22.0361 18.3101C22.798 19.072 23.8313 19.5 24.9087 19.5H26.4062V19.4875C29.8069 19.2778 32.5 16.4534 32.5 13C32.5 9.41018 29.5898 6.5 26 6.5H13C9.41018 6.5 6.5 9.41018 6.5 13C6.5 16.5899 9.41018 19.5 13 19.5H16.935C17.5815 19.5 18.2015 19.7568 18.6586 20.2139L20.0049 21.5601C20.7667 22.322 21.8 22.75 22.8775 22.75H26C31.3848 22.75 35.75 18.3848 35.75 13C35.75 7.6152 31.3848 3.25 26 3.25H13C7.6152 3.25 3.25 7.6152 3.25 13C3.25 18.3848 7.6152 22.75 13 22.75H15.1945C15.841 22.75 16.461 23.0068 16.9181 23.4639L18.2643 24.8101C19.0262 25.572 20.0595 26 21.137 26H26C33.1797 26 39 20.1797 39 13C39 5.82029 33.1797 -6.27669e-07 26 0L13 2.68622e-06C5.82029 3.31389e-06 -6.27669e-07 5.8203 0 13C6.27669e-07 20.1797 5.8203 26 13 26Z" fill="#212326"/>
</svg>
