<svg width="28" height="30" viewBox="0 0 28 30" fill="none" xmlns="http://www.w3.org/2000/svg">
<path d="M26.1999 12.7713H15.784V1.94835C15.784 1.46995 15.6011 1.01114 15.2756 0.672857C14.95 0.334576 14.5084 0.144531 14.048 0.144531C13.5876 0.144531 13.1461 0.334576 12.8205 0.672857C12.4949 1.01114 12.312 1.46995 12.312 1.94835V12.7713H1.89614C1.43573 12.7713 0.994175 12.9613 0.668615 13.2996C0.343054 13.6379 0.160156 14.0967 0.160156 14.5751C0.160156 15.0535 0.343054 15.5123 0.668615 15.8506C0.994175 16.1888 1.43573 16.3789 1.89614 16.3789H12.312V27.2018C12.312 27.6802 12.4949 28.139 12.8205 28.4773C13.1461 28.8156 13.5876 29.0056 14.048 29.0056C14.5084 29.0056 14.95 28.8156 15.2756 28.4773C15.6011 28.139 15.784 27.6802 15.784 27.2018V16.3789H26.1999C26.6603 16.3789 27.1019 16.1888 27.4275 15.8506C27.753 15.5123 27.9359 15.0535 27.9359 14.5751C27.9359 14.0967 27.753 13.6379 27.4275 13.2996C27.1019 12.9613 26.6603 12.7713 26.1999 12.7713Z" fill="white"/>
</svg>
