<svg width="493" height="630" viewBox="0 0 493 630" fill="none" xmlns="http://www.w3.org/2000/svg">
<g filter="url(#filter0_d_1099_4110)">
<path fill-rule="evenodd" clip-rule="evenodd" d="M23 25.2529C23 22.9041 24.9041 21 27.2529 21H465.747C468.096 21 470 22.9041 470 25.2529V173.889C470 176.772 467.155 178.823 464.274 178.719C464.017 178.71 463.759 178.705 463.5 178.705C451.074 178.705 441 189.439 441 202.68C441 215.922 451.074 226.656 463.5 226.656C463.759 226.656 464.017 226.651 464.274 226.642C467.155 226.538 470 228.589 470 231.472V601.747C470 604.096 468.096 606 465.747 606H27.2529C24.9041 606 23 604.096 23 601.747V228.818C23 226.977 24.6594 225.59 26.5 225.59V225.59C38.9264 225.59 49 214.856 49 201.615C49 188.374 38.9264 177.639 26.5 177.639V177.639C24.6594 177.639 23 176.252 23 174.412V25.2529Z" fill="white"/>
</g>
<path d="M52 203H436" stroke="#7D7D7D" stroke-width="0.425287" stroke-linecap="round" stroke-dasharray="5.1 5.1"/>
<defs>
<filter id="filter0_d_1099_4110" x="0.885057" y="0.586207" width="491.23" height="629.23" filterUnits="userSpaceOnUse" color-interpolation-filters="sRGB">
<feFlood flood-opacity="0" result="BackgroundImageFix"/>
<feColorMatrix in="SourceAlpha" type="matrix" values="0 0 0 0 0 0 0 0 0 0 0 0 0 0 0 0 0 0 127 0" result="hardAlpha"/>
<feOffset dy="1.70115"/>
<feGaussianBlur stdDeviation="11.0575"/>
<feComposite in2="hardAlpha" operator="out"/>
<feColorMatrix type="matrix" values="0 0 0 0 0 0 0 0 0 0 0 0 0 0 0 0 0 0 0.1 0"/>
<feBlend mode="normal" in2="BackgroundImageFix" result="effect1_dropShadow_1099_4110"/>
<feBlend mode="normal" in="SourceGraphic" in2="effect1_dropShadow_1099_4110" result="shape"/>
</filter>
</defs>
</svg>
